<?xml version="1.0" encoding="UTF-8"?>
<svg version="1.1" xmlns="http://www.w3.org/2000/svg" width="1216" height="1216">
<path d="M0 0 C56.43 0 112.86 0 171 0 C171 12.54 171 25.08 171 38 C189.81 38 208.62 38 228 38 C228 50.54 228 63.08 228 76 C240.54 76 253.08 76 266 76 C266 144.97 266 213.94 266 285 C253.46 285 240.92 285 228 285 C228 303.81 228 322.62 228 342 C209.19 342 190.38 342 171 342 C171 354.54 171 367.08 171 380 C158.46 380 145.92 380 133 380 C133 392.54 133 405.08 133 418 C120.46 418 107.92 418 95 418 C95 430.54 95 443.08 95 456 C76.19 456 57.38 456 38 456 C38 468.54 38 481.08 38 494 C25.46 494 12.92 494 0 494 C0 512.81 0 531.62 0 551 C-18.81 551 -37.62 551 -57 551 C-57 563.54 -57 576.08 -57 589 C-69.54 589 -82.08 589 -95 589 C-95 601.54 -95 614.08 -95 627 C-151.43 627 -207.86 627 -266 627 C-266 614.46 -266 601.92 -266 589 C-284.81 589 -303.62 589 -323 589 C-323 576.46 -323 563.92 -323 551 C-335.54 551 -348.08 551 -361 551 C-361 482.03 -361 413.06 -361 342 C-348.46 342 -335.92 342 -323 342 C-323 310.65 -323 279.3 -323 247 C-304.19 247 -285.38 247 -266 247 C-266 234.46 -266 221.92 -266 209 C-253.46 209 -240.92 209 -228 209 C-228 196.46 -228 183.92 -228 171 C-215.46 171 -202.92 171 -190 171 C-190 158.46 -190 145.92 -190 133 C-171.19 133 -152.38 133 -133 133 C-133 114.19 -133 95.38 -133 76 C-120.46 76 -107.92 76 -95 76 C-95 63.46 -95 50.92 -95 38 C-63.65 38 -32.3 38 0 38 C0 25.46 0 12.92 0 0 Z " fill="#8D6729" transform="translate(627,304)"/>
<path d="M0 0 C62.7 0 125.4 0 190 0 C190 18.81 190 37.62 190 57 C202.54 57 215.08 57 228 57 C228 82.08 228 107.16 228 133 C215.46 133 202.92 133 190 133 C190 145.54 190 158.08 190 171 C177.46 171 164.92 171 152 171 C152 183.54 152 196.08 152 209 C133.19 209 114.38 209 95 209 C95 227.81 95 246.62 95 266 C82.46 266 69.92 266 57 266 C57 278.54 57 291.08 57 304 C38.19 304 19.38 304 0 304 C0 316.54 0 329.08 0 342 C-12.54 342 -25.08 342 -38 342 C-38 354.54 -38 367.08 -38 380 C-81.89 380 -125.78 380 -171 380 C-171 367.46 -171 354.92 -171 342 C-183.54 342 -196.08 342 -209 342 C-209 298.11 -209 254.22 -209 209 C-196.46 209 -183.92 209 -171 209 C-171 171.38 -171 133.76 -171 95 C-158.46 95 -145.92 95 -133 95 C-133 82.46 -133 69.92 -133 57 C-89.11 57 -45.22 57 0 57 C0 38.19 0 19.38 0 0 Z " fill="#B88532" transform="translate(570,380)"/>
<path d="M0 0 C56.43 0 112.86 0 171 0 C171 31.35 171 62.7 171 95 C183.54 95 196.08 95 209 95 C209 107.54 209 120.08 209 133 C196.46 133 183.92 133 171 133 C171 145.54 171 158.08 171 171 C127.11 171 83.22 171 38 171 C38 158.46 38 145.92 38 133 C25.46 133 12.92 133 0 133 C0 89.11 0 45.22 0 0 Z " fill="#B88532" transform="translate(361,589)"/>
<path d="M0 0 C31.35 0 62.7 0 95 0 C95 12.54 95 25.08 95 38 C82.46 38 69.92 38 57 38 C57 56.81 57 75.62 57 95 C38.19 95 19.38 95 0 95 C0 107.54 0 120.08 0 133 C-12.54 133 -25.08 133 -38 133 C-38 145.54 -38 158.08 -38 171 C-94.43 171 -150.86 171 -209 171 C-209 158.46 -209 145.92 -209 133 C-227.81 133 -246.62 133 -266 133 C-266 120.46 -266 107.92 -266 95 C-190.76 95 -115.52 95 -38 95 C-38 76.19 -38 57.38 -38 38 C-25.46 38 -12.92 38 0 38 C0 25.46 0 12.92 0 0 Z " fill="#7D5820" transform="translate(570,760)"/>
<path d="M0 0 C62.7 0 125.4 0 190 0 C190 18.81 190 37.62 190 57 C202.54 57 215.08 57 228 57 C228 82.08 228 107.16 228 133 C215.46 133 202.92 133 190 133 C190 145.54 190 158.08 190 171 C177.46 171 164.92 171 152 171 C152 145.92 152 120.84 152 95 C133.19 95 114.38 95 95 95 C95 82.46 95 69.92 95 57 C63.65 57 32.3 57 0 57 C0 38.19 0 19.38 0 0 Z " fill="#B88532" transform="translate(570,380)"/>
<path d="M0 0 C12.54 0 25.08 0 38 0 C38 25.08 38 50.16 38 76 C25.46 76 12.92 76 0 76 C0 119.89 0 163.78 0 209 C12.54 209 25.08 209 38 209 C38 221.54 38 234.08 38 247 C50.54 247 63.08 247 76 247 C76 259.54 76 272.08 76 285 C50.92 285 25.84 285 0 285 C0 272.46 0 259.92 0 247 C-18.81 247 -37.62 247 -57 247 C-57 178.03 -57 109.06 -57 38 C-38.19 38 -19.38 38 0 38 C0 25.46 0 12.92 0 0 Z " fill="#A37832" transform="translate(361,513)"/>
<path d="M0 0 C12.54 0 25.08 0 38 0 C38 68.97 38 137.94 38 209 C25.46 209 12.92 209 0 209 C0 227.81 0 246.62 0 266 C-18.81 266 -37.62 266 -57 266 C-57 278.54 -57 291.08 -57 304 C-69.54 304 -82.08 304 -95 304 C-95 272.65 -95 241.3 -95 209 C-82.46 209 -69.92 209 -57 209 C-57 196.46 -57 183.92 -57 171 C-38.19 171 -19.38 171 0 171 C0 114.57 0 58.14 0 0 Z " fill="#52401E" transform="translate(855,380)"/>
<path d="M0 0 C12.54 0 25.08 0 38 0 C38 25.08 38 50.16 38 76 C25.46 76 12.92 76 0 76 C0 94.81 0 113.62 0 133 C-18.81 133 -37.62 133 -57 133 C-57 101.65 -57 70.3 -57 38 C-38.19 38 -19.38 38 0 38 C0 25.46 0 12.92 0 0 Z " fill="#634E26" transform="translate(361,513)"/>
<path d="M0 0 C12.54 0 25.08 0 38 0 C38 68.97 38 137.94 38 209 C25.46 209 12.92 209 0 209 C0 140.03 0 71.06 0 0 Z " fill="#634E26" transform="translate(266,646)"/>
<path d="M0 0 C31.35 0 62.7 0 95 0 C95 12.54 95 25.08 95 38 C76.19 38 57.38 38 38 38 C38 56.81 38 75.62 38 95 C12.92 95 -12.16 95 -38 95 C-38 76.19 -38 57.38 -38 38 C-25.46 38 -12.92 38 0 38 C0 25.46 0 12.92 0 0 Z " fill="#8C6629" transform="translate(532,342)"/>
<path d="M0 0 C56.43 0 112.86 0 171 0 C171 12.54 171 25.08 171 38 C114.57 38 58.14 38 0 38 C0 25.46 0 12.92 0 0 Z " fill="#634E26" transform="translate(627,304)"/>
<path d="M0 0 C31.35 0 62.7 0 95 0 C95 12.54 95 25.08 95 38 C82.46 38 69.92 38 57 38 C57 50.54 57 63.08 57 76 C38.19 76 19.38 76 0 76 C0 50.92 0 25.84 0 0 Z " fill="#7D5820" transform="translate(665,684)"/>
<path d="M0 0 C18.81 0 37.62 0 57 0 C57 31.35 57 62.7 57 95 C38.19 95 19.38 95 0 95 C0 63.65 0 32.3 0 0 Z " fill="#7D5820" transform="translate(304,760)"/>
<path d="M0 0 C43.89 0 87.78 0 133 0 C133 12.54 133 25.08 133 38 C89.11 38 45.22 38 0 38 C0 25.46 0 12.92 0 0 Z " fill="#52401E" transform="translate(399,893)"/>
<path d="M0 0 C18.81 0 37.62 0 57 0 C57 25.08 57 50.16 57 76 C38.19 76 19.38 76 0 76 C0 50.92 0 25.84 0 0 Z " fill="#A37832" transform="translate(665,475)"/>
<path d="M0 0 C12.54 0 25.08 0 38 0 C38 31.35 38 62.7 38 95 C25.46 95 12.92 95 0 95 C0 63.65 0 32.3 0 0 Z " fill="#7D5820" transform="translate(760,589)"/>
<path d="M0 0 C31.35 0 62.7 0 95 0 C95 12.54 95 25.08 95 38 C63.65 38 32.3 38 0 38 C0 25.46 0 12.92 0 0 Z " fill="#8C6629" transform="translate(437,551)"/>
<path d="M0 0 C31.35 0 62.7 0 95 0 C95 12.54 95 25.08 95 38 C63.65 38 32.3 38 0 38 C0 25.46 0 12.92 0 0 Z " fill="#8C6629" transform="translate(570,437)"/>
<path d="M0 0 C31.35 0 62.7 0 95 0 C95 12.54 95 25.08 95 38 C63.65 38 32.3 38 0 38 C0 25.46 0 12.92 0 0 Z " fill="#634E26" transform="translate(532,342)"/>
<path d="M0 0 C18.81 0 37.62 0 57 0 C57 18.81 57 37.62 57 57 C38.19 57 19.38 57 0 57 C0 38.19 0 19.38 0 0 Z " fill="#52401E" transform="translate(570,798)"/>
<path d="M0 0 C12.54 0 25.08 0 38 0 C38 25.08 38 50.16 38 76 C25.46 76 12.92 76 0 76 C0 50.92 0 25.84 0 0 Z " fill="#8C6629" transform="translate(361,513)"/>
<path d="M0 0 C18.81 0 37.62 0 57 0 C57 12.54 57 25.08 57 38 C38.19 38 19.38 38 0 38 C0 25.46 0 12.92 0 0 Z " fill="#634E26" transform="translate(304,855)"/>
<path d="M0 0 C12.54 0 25.08 0 38 0 C38 18.81 38 37.62 38 57 C25.46 57 12.92 57 0 57 C0 38.19 0 19.38 0 0 Z " fill="#7D5820" transform="translate(532,798)"/>
<path d="M0 0 C18.81 0 37.62 0 57 0 C57 12.54 57 25.08 57 38 C38.19 38 19.38 38 0 38 C0 25.46 0 12.92 0 0 Z " fill="#8C6629" transform="translate(304,760)"/>
<path d="M0 0 C18.81 0 37.62 0 57 0 C57 12.54 57 25.08 57 38 C38.19 38 19.38 38 0 38 C0 25.46 0 12.92 0 0 Z " fill="#52401E" transform="translate(665,722)"/>
<path d="M0 0 C18.81 0 37.62 0 57 0 C57 12.54 57 25.08 57 38 C38.19 38 19.38 38 0 38 C0 25.46 0 12.92 0 0 Z " fill="#8C6629" transform="translate(304,646)"/>
<path d="M0 0 C12.54 0 25.08 0 38 0 C38 18.81 38 37.62 38 57 C25.46 57 12.92 57 0 57 C0 38.19 0 19.38 0 0 Z " fill="#8C6629" transform="translate(532,589)"/>
<path d="M0 0 C12.54 0 25.08 0 38 0 C38 18.81 38 37.62 38 57 C25.46 57 12.92 57 0 57 C0 38.19 0 19.38 0 0 Z " fill="#A37832" transform="translate(494,589)"/>
<path d="M0 0 C18.81 0 37.62 0 57 0 C57 12.54 57 25.08 57 38 C38.19 38 19.38 38 0 38 C0 25.46 0 12.92 0 0 Z " fill="#6B4B1C" transform="translate(798,551)"/>
<path d="M0 0 C18.81 0 37.62 0 57 0 C57 12.54 57 25.08 57 38 C38.19 38 19.38 38 0 38 C0 25.46 0 12.92 0 0 Z " fill="#7D5820" transform="translate(798,513)"/>
<path d="M0 0 C18.81 0 37.62 0 57 0 C57 12.54 57 25.08 57 38 C38.19 38 19.38 38 0 38 C0 25.46 0 12.92 0 0 Z " fill="#8C6629" transform="translate(665,475)"/>
<path d="M0 0 C18.81 0 37.62 0 57 0 C57 12.54 57 25.08 57 38 C38.19 38 19.38 38 0 38 C0 25.46 0 12.92 0 0 Z " fill="#634E26" transform="translate(437,437)"/>
<path d="M0 0 C12.54 0 25.08 0 38 0 C38 18.81 38 37.62 38 57 C25.46 57 12.92 57 0 57 C0 38.19 0 19.38 0 0 Z " fill="#A37832" transform="translate(760,380)"/>
<path d="M0 0 C12.54 0 25.08 0 38 0 C38 18.81 38 37.62 38 57 C25.46 57 12.92 57 0 57 C0 38.19 0 19.38 0 0 Z " fill="#634E26" transform="translate(494,380)"/>
<path d="M0 0 C18.81 0 37.62 0 57 0 C57 12.54 57 25.08 57 38 C38.19 38 19.38 38 0 38 C0 25.46 0 12.92 0 0 Z " fill="#634E26" transform="translate(798,342)"/>
<path d="M0 0 C12.54 0 25.08 0 38 0 C38 12.54 38 25.08 38 38 C25.46 38 12.92 38 0 38 C0 25.46 0 12.92 0 0 Z " fill="#634E26" transform="translate(361,893)"/>
<path d="M0 0 C12.54 0 25.08 0 38 0 C38 12.54 38 25.08 38 38 C25.46 38 12.92 38 0 38 C0 25.46 0 12.92 0 0 Z " fill="#52401E" transform="translate(532,855)"/>
<path d="M0 0 C12.54 0 25.08 0 38 0 C38 12.54 38 25.08 38 38 C25.46 38 12.92 38 0 38 C0 25.46 0 12.92 0 0 Z " fill="#6B4B1C" transform="translate(494,855)"/>
<path d="M0 0 C12.54 0 25.08 0 38 0 C38 12.54 38 25.08 38 38 C25.46 38 12.92 38 0 38 C0 25.46 0 12.92 0 0 Z " fill="#52401E" transform="translate(627,760)"/>
<path d="M0 0 C12.54 0 25.08 0 38 0 C38 12.54 38 25.08 38 38 C25.46 38 12.92 38 0 38 C0 25.46 0 12.92 0 0 Z " fill="#7D5820" transform="translate(627,722)"/>
<path d="M0 0 C12.54 0 25.08 0 38 0 C38 12.54 38 25.08 38 38 C25.46 38 12.92 38 0 38 C0 25.46 0 12.92 0 0 Z " fill="#52401E" transform="translate(722,684)"/>
<path d="M0 0 C12.54 0 25.08 0 38 0 C38 12.54 38 25.08 38 38 C25.46 38 12.92 38 0 38 C0 25.46 0 12.92 0 0 Z " fill="#52401E" transform="translate(760,646)"/>
<path d="M0 0 C12.54 0 25.08 0 38 0 C38 12.54 38 25.08 38 38 C25.46 38 12.92 38 0 38 C0 25.46 0 12.92 0 0 Z " fill="#7D5820" transform="translate(722,646)"/>
<path d="M0 0 C12.54 0 25.08 0 38 0 C38 12.54 38 25.08 38 38 C25.46 38 12.92 38 0 38 C0 25.46 0 12.92 0 0 Z " fill="#A37832" transform="translate(532,646)"/>
<path d="M0 0 C12.54 0 25.08 0 38 0 C38 12.54 38 25.08 38 38 C25.46 38 12.92 38 0 38 C0 25.46 0 12.92 0 0 Z " fill="#A37832" transform="translate(399,551)"/>
<path d="M0 0 C12.54 0 25.08 0 38 0 C38 12.54 38 25.08 38 38 C25.46 38 12.92 38 0 38 C0 25.46 0 12.92 0 0 Z " fill="#634E26" transform="translate(361,513)"/>
<path d="M0 0 C12.54 0 25.08 0 38 0 C38 12.54 38 25.08 38 38 C25.46 38 12.92 38 0 38 C0 25.46 0 12.92 0 0 Z " fill="#A37832" transform="translate(760,475)"/>
<path d="M0 0 C12.54 0 25.08 0 38 0 C38 12.54 38 25.08 38 38 C25.46 38 12.92 38 0 38 C0 25.46 0 12.92 0 0 Z " fill="#A37832" transform="translate(627,475)"/>
<path d="M0 0 C12.54 0 25.08 0 38 0 C38 12.54 38 25.08 38 38 C25.46 38 12.92 38 0 38 C0 25.46 0 12.92 0 0 Z " fill="#634E26" transform="translate(399,475)"/>
<path d="M0 0 C12.54 0 25.08 0 38 0 C38 12.54 38 25.08 38 38 C25.46 38 12.92 38 0 38 C0 25.46 0 12.92 0 0 Z " fill="#A37832" transform="translate(532,437)"/>
<path d="M0 0 C12.54 0 25.08 0 38 0 C38 12.54 38 25.08 38 38 C25.46 38 12.92 38 0 38 C0 25.46 0 12.92 0 0 Z " fill="#8C6629" transform="translate(760,342)"/>
<path d="M0 0 C12.54 0 25.08 0 38 0 C38 12.54 38 25.08 38 38 C25.46 38 12.92 38 0 38 C0 25.46 0 12.92 0 0 Z " fill="#8C6629" transform="translate(627,342)"/>
</svg>
