<svg width="86" height="58" viewBox="0 0 86 58" fill="none" xmlns="http://www.w3.org/2000/svg">
<path d="M4.75 49.844L1.0938 53.5002C0.4063 52.2814 0 50.844 0 49.3127V8.6877C0 7.1565 0.40625 5.7189 1.0938 4.5002L25.5938 29.0002L4.75 49.844ZM84.906 4.594L83.1248 6.344L60.4058 29.063L84.8438 53.501C85.5313 52.2822 85.9376 50.8448 85.9376 49.3135V8.6885C85.9376 7.1885 85.5622 5.8128 84.906 4.594ZM8.062 4.844L40.281 37.063C41.781 38.563 44.281 38.5942 45.8122 37.063L55.3434 27.5318C55.3434 27.5318 55.4059 27.4381 55.4371 27.4068L81.5931 1.2508C80.3431 0.500803 78.8743 0.0946045 77.3431 0.0946045H8.59315C7.06195 0.0946045 5.62435 0.500854 4.40565 1.1884L8.062 4.844ZM77.874 53.156L57.093 32.375L49.1242 40.375C47.4367 42.0312 45.2492 42.875 43.0304 42.875C40.8116 42.875 38.6242 42.0313 36.9679 40.375L28.9054 32.3125L4.4054 56.8125C5.6242 57.5 7.0616 57.9063 8.5929 57.9063H77.3429C78.8741 57.9063 80.3117 57.5001 81.5304 56.8125L77.874 53.156Z" fill="#EFEFEF"/>
</svg>
