<?xml version="1.0" encoding="UTF-8"?>
<svg version="1.1" xmlns="http://www.w3.org/2000/svg" width="16" height="16">
<path d="M0 0 C5.28 0 10.56 0 16 0 C16 5.28 16 10.56 16 16 C10.72 16 5.44 16 0 16 C0 10.72 0 5.44 0 0 Z " fill="#8D5C36" transform="translate(0,0)"/>
<path d="M0 0 C0.66 0 1.32 0 2 0 C2 0.66 2 1.32 2 2 C3.32 2 4.64 2 6 2 C6 4.97 6 7.94 6 11 C0.72 11 -4.56 11 -10 11 C-10 8.69 -10 6.38 -10 4 C-2.57142857 3.85714286 -2.57142857 3.85714286 1 5 C0.67 3.35 0.34 1.7 0 0 Z " fill="#5A554D" transform="translate(10,5)"/>
<path d="M0 0 C0.66 0 1.32 0 2 0 C2 0.66 2 1.32 2 2 C3.32 2 4.64 2 6 2 C6 2.99 6 3.98 6 5 C5.09636719 5.20496094 4.19273438 5.40992188 3.26171875 5.62109375 C2.08222656 5.89050781 0.90273437 6.15992188 -0.3125 6.4375 C-2.07013672 6.83775391 -2.07013672 6.83775391 -3.86328125 7.24609375 C-7.00236971 7.95313969 -7.00236971 7.95313969 -10 9 C-10 7.35 -10 5.7 -10 4 C-2.57142857 3.85714286 -2.57142857 3.85714286 1 5 C0.67 3.35 0.34 1.7 0 0 Z " fill="#939180" transform="translate(10,5)"/>
<path d="M0 0 C1.65 0 3.3 0 5 0 C5.66 2.31 6.32 4.62 7 7 C3.37 6.67 -0.26 6.34 -4 6 C-3.67 5.01 -3.34 4.02 -3 3 C-1.35 3 0.3 3 2 3 C2 2.34 2 1.68 2 1 C1.34 0.67 0.68 0.34 0 0 Z " fill="#5D3926" transform="translate(4,3)"/>
<path d="M0 0 C2.97 0.33 5.94 0.66 9 1 C9 1.99 9 2.98 9 4 C5.37 4 1.74 4 -2 4 C-1.34 3.67 -0.68 3.34 0 3 C0 2.01 0 1.02 0 0 Z " fill="#817D6E" transform="translate(7,12)"/>
<path d="M0 0 C4.29 0 8.58 0 13 0 C13 0.99 13 1.98 13 3 C11.02 3 9.04 3 7 3 C7 2.34 7 1.68 7 1 C4.69 1.33 2.38 1.66 0 2 C0 1.34 0 0.68 0 0 Z " fill="#BA9868" transform="translate(3,0)"/>
<path d="M0 0 C2.31 0 4.62 0 7 0 C7 1.32 7 2.64 7 4 C5.68 4 4.36 4 3 4 C3 3.34 3 2.68 3 2 C2.34 2 1.68 2 1 2 C0.67 2.66 0.34 3.32 0 4 C0 2.68 0 1.36 0 0 Z " fill="#8A4722" transform="translate(9,3)"/>
<path d="M0 0 C0.66 0 1.32 0 2 0 C2 0.66 2 1.32 2 2 C3.32 2 4.64 2 6 2 C6 2.99 6 3.98 6 5 C3.69 5.33 1.38 5.66 -1 6 C-0.34 5.67 0.32 5.34 1 5 C0.67 3.35 0.34 1.7 0 0 Z " fill="#A89171" transform="translate(10,5)"/>
</svg>
