<svg width="80" height="86" viewBox="0 0 80 86" fill="none" xmlns="http://www.w3.org/2000/svg">
<path d="M40 0C39.0572 0 38 1.01133 38 2V8C37.9851 9.05662 38.9433 10.0285 40 10.0285C41.0567 10.0285 42.0149 9.05662 42 8V2C42 0.865186 40.9428 0 40 0ZM67 11.9375C66.9161 11.9427 66.8326 11.9531 66.75 11.9688C66.3133 12.0319 65.8995 12.2443 65.5938 12.5625L61.5938 16.5625C60.8254 17.2932 60.8044 18.6645 61.55 19.4184C62.2957 20.1723 63.6671 20.1665 64.4062 19.4062L68.4062 15.4062C68.9988 14.8587 69.2057 13.9333 68.9026 13.1856C68.5994 12.4379 67.8066 11.9178 67 11.9375ZM12.7812 11.9688C12.024 12.0425 11.3329 12.5873 11.0844 13.3064C10.836 14.0256 11.0434 14.8808 11.5938 15.4062L15.5938 19.4062C16.3329 20.1665 17.7043 20.1723 18.45 19.4184C19.1956 18.6645 19.1746 17.2932 18.4063 16.5625L14.4063 12.5625C13.9897 12.1357 13.3748 11.911 12.7812 11.9688ZM40 18C28.8211 18 18 27.1133 18 40C18 55.7227 28.6085 58.0453 29.875 68H50.125C51.3915 58.0453 62 55.7227 62 40C62 27.1133 51.1789 18 40 18ZM69 41C69 41.9428 69.9479 43 71 43H78C79.0566 43.0149 80 42.0567 80 41C80 39.9433 79.0566 38.9851 78 39H71C69.8478 39 69 40.0572 69 41ZM0 41C0 41.9428 0.951519 43 2 43H8C9.05662 43.0149 10.0285 42.0567 10.0285 41C10.0285 39.9433 9.05662 38.9851 8 39H2C0.849668 39 0 40.0572 0 41ZM18.25 60.4375C17.7341 60.4579 17.2295 60.6872 16.875 61.0625L11.7188 66.1875C10.9504 66.9182 10.9294 68.2895 11.675 69.0434C12.4207 69.7973 13.7921 69.7915 14.5313 69.0312L19.6875 63.875C20.2618 63.3196 20.4506 62.4025 20.1424 61.6655C19.8342 60.9284 19.0487 60.4187 18.25 60.4375ZM61.5 60.4375C60.7427 60.5112 60.0516 61.056 59.8032 61.7752C59.5547 62.4943 59.7622 63.3496 60.3125 63.875L65.4688 69.0312C66.2079 69.7915 67.5793 69.7973 68.325 69.0434C69.0706 68.2895 69.0496 66.9182 68.2812 66.1875L63.125 61.0625C62.7559 60.6726 62.2244 60.4415 61.6875 60.4375C61.6251 60.4346 61.5625 60.4346 61.5 60.4375ZM30 72V82C30 84.2981 31.8895 86 34 86H46C48.1105 86 50 84.2981 50 82V72H30Z" fill="#EEEBEB"/>
</svg>
