<svg width="200" height="200" viewBox="0 0 200 200" fill="none" xmlns="http://www.w3.org/2000/svg">
<path fill-rule="evenodd" clip-rule="evenodd" d="M100 0C44.8093 0 0 44.8093 0 100C0 155.191 44.8093 200 100 200C155.191 200 200 155.191 200 100C200 44.8093 155.191 0 100 0ZM123.274 68.4279C133.126 75.6186 139.535 87.2558 139.535 100.372C139.535 122.195 121.823 139.907 100 139.907C78.1767 139.907 60.4651 122.195 60.4651 100.372C60.4651 87.2558 66.8744 75.6186 76.7256 68.4279C79.8326 66.1581 80.5116 61.786 78.2419 58.6791C75.9721 55.5628 71.6093 54.8837 68.493 57.1535C55.1721 66.8837 46.5116 82.6326 46.5116 100.372C46.5116 129.898 70.4744 153.86 100 153.86C129.526 153.86 153.488 129.898 153.488 100.372C153.488 82.6326 144.828 66.8837 131.507 57.1535C128.391 54.8837 124.028 55.5628 121.758 58.6791C119.488 61.786 120.167 66.1581 123.274 68.4279ZM93.0233 48.8372V76.7442C93.0233 80.5953 96.1488 83.7209 100 83.7209C103.851 83.7209 106.977 80.5953 106.977 76.7442V48.8372C106.977 44.986 103.851 41.8605 100 41.8605C96.1488 41.8605 93.0233 44.986 93.0233 48.8372Z" fill="white"/>
</svg>
