<svg width="80" height="64" viewBox="0 0 80 64" fill="none" xmlns="http://www.w3.org/2000/svg">
<path fill-rule="evenodd" clip-rule="evenodd" d="M14.0618 50.0009V29.3002L36.4065 39.3096C37.556 39.8182 38.7772 39.81 39.9248 39.3004L62.8348 29.0408V50.0009C62.8311 50.3311 62.7708 50.6674 62.6436 50.9904C62.6322 51.0221 58.2575 62.345 38.6688 63.9876C38.5407 64.001 38.4078 64.003 38.275 63.9917C20.4623 62.5152 15.2066 53.039 14.3775 51.2744C14.1768 50.8991 14.0618 50.4644 14.0618 50.0009ZM1.43421 16.2414L37.28 0.189631C37.8679 -0.0728573 38.4973 -0.0533758 39.0429 0.189631L74.8877 16.2414C76.3312 16.8874 76.7768 18.8673 75.8101 20.1675V44.34L79.6459 51.0221C80.6145 52.717 79.4659 54.8918 77.6729 54.8856L69.2918 54.8918C67.3829 54.8918 66.3173 52.5407 67.3942 50.8909L71.1537 44.342V22.5852L39.0429 36.9647C38.4549 37.2272 37.8255 37.2077 37.28 36.9647L1.43421 20.9139C-0.498276 20.0506 -0.45776 17.0873 1.43421 16.2414Z" fill="#EEEBEB"/>
</svg>
